#!OML:ASF Y:\EmotionMaleHayes\Project 1\Capture day 1\Session 1\Male1.ASF
:FULLY-SPECIFIED
:DEGREES
1532
root 27.9859 17.0898 -19.0674 485.156 -83.326 589.196
lowerback 10.2207 2.13866 4.31205
upperback 3.38827 3.17667 1.90473
thorax -2.06407 1.52382 -0.815181
lowerneck -20.5585 1.44842 4.61697
upperneck 27.8426 0.0920045 -0.0978748
head 12.7156 0.388167 -0.836906
rclavicle 1.44243e-014 1.77912e-014
rhumerus -22.2022 5.78489 -82.7825
rradius 42.1214
rwrist -3.16894
rhand -15.7334 -34.2774
rfingers 7.12502
rthumb 10.4573 -63.9973
lclavicle 1.44243e-014 1.77912e-014
lhumerus -38.398 9.55668 77.0927
lradius 16.2957
lwrist -42.8393
lhand -6.14422 -23.1865
lfingers 7.12502
lthumb 19.6937 5.83591
rfemur 8.4361 -3.54717 25.7251
rtibia 7.69545
rfoot -13.4147 5.1713
rtoes 7.83276
lfemur -12.6246 7.72469 -12.1243
ltibia 57.1023
lfoot -8.46085 0.831443
ltoes 7.07681
1533
root 27.8496 17.0847 -19.0663 486.684 -83.5187 587.72
lowerback 10.1771 2.20101 4.17215
upperback 3.3621 3.24414 1.71367
thorax -2.06153 1.56004 -0.941118
lowerneck -20.2594 1.37685 4.20826
upperneck 27.6657 -0.0155763 0.432143
head 12.5801 0.365218 -0.582329
rclavicle -1.86671e-014 2.73329e-014
rhumerus -21.4141 5.85805 -82.6738
rradius 42.1266
rwrist -2.79727
rhand -14.7804 -34.6639
rfingers 7.12502
rthumb 11.3765 -64.3353
lclavicle -1.86671e-014 2.73329e-014
lhumerus -38.864 9.10552 76.8975
lradius 16.4887
lwrist -41.303
lhand -6.13055 -23.1147
lfingers 7.12502
lthumb 19.7069 5.90633
rfemur 9.31401 -3.96332 25.1664
rtibia 7.00149
rfoot -13.4117 5.75981
rtoes 8.4899
lfemur -13.6277 7.69283 -12.6589
ltibia 55.589
lfoot -9.27789 1.34303
ltoes 4.93361
1534
root 27.7074 17.077 -19.063 487.832 -83.2897 586.607
lowerback 10.1366 2.29916 4.36769
upperback 3.31142 3.39361 1.63689
thorax -2.06843 1.63548 -1.14519
lowerneck -20.1019 1.38164 4.28923
upperneck 27.5923 0.0270409 0.265877
head 12.5189 0.36849 -0.652663
rclavicle -2.42176e-014 2.18415e-014
rhumerus -20.5575 5.99139 -82.5823
rradius 41.9758
rwrist -2.47172
rhand -14.2103 -34.7652
rfingers 7.12502
rthumb 11.9264 -64.4054
lclavicle -2.42176e-014 2.18415e-014
lhumerus -39.3036 8.60495 76.7915
lradius 16.477
lwrist -39.5786
lhand -6.52388 -23.0998
lfingers 7.12502
lthumb 19.3287 5.95965
rfemur 10.1443 -4.17943 25.0729
rtibia 6.4198
rfoot -13.3861 6.30037
rtoes 9.0965
lfemur -14.3805 7.8158 -12.7471
ltibia 53.7217
lfoot -9.93856 1.91088
ltoes 3.09794
1535
root 27.5734 17.0708 -19.065 487.311 -82.8854 587.151
lowerback 10.2593 2.37374 4.7577
upperback 3.22557 3.54275 1.66504
thorax -2.19437 1.70592 -1.35755
lowerneck -20.5767 1.35398 4.42837
upperneck 28.2228 -0.011627 -0.0631292
head 12.8702 0.326931 -0.812235
rclavicle 9.68454e-015 2.77305e-014
rhumerus -19.7489 6.18553 -82.4926
rradius 41.7423
rwrist -2.33102
rhand -14.182 -34.4201
rfingers 7.12502
rthumb 11.9536 -64.0588
lclavicle 9.68454e-015 2.77305e-014
lhumerus -39.6442 8.13441 76.7185
lradius 16.2115
lwrist -37.6891
lhand -7.44488 -23.528
lfingers 7.12502
lthumb 18.4429 5.61774
rfemur 10.7995 -4.07045 25.4573
rtibia 6.11366
rfoot -13.515 6.37067
rtoes 9.56698
lfemur -15.1705 7.99067 -12.4354
ltibia 51.9863
lfoot -10.5581 2.4113
ltoes 2.54885
1536
root 27.4392 17.0642 -19.0632 488.758 -82.8027 585.865
lowerback 10.1347 2.48082 4.73873
upperback 3.16803 3.68017 1.60812
thorax -2.1756 1.77602 -1.41651
lowerneck -19.8791 1.19778 4.21087
upperneck 27.5048 -0.0868667 -0.0763475
head 12.4322 0.261112 -0.78868
rclavicle -4.06421e-015 1.45858e-014
rhumerus -19.0497 6.37565 -82.3478
rradius 41.7746
rwrist -2.32272
rhand -14.093 -34.3528
rfingers 7.12502
rthumb 12.0394 -63.9865
lclavicle -4.06421e-015 1.45858e-014
lhumerus -39.9537 7.79589 76.6877
lradius 16.2914
lwrist -35.5246
lhand -7.78889 -23.9053
lfingers 7.12502
lthumb 18.112 5.27143
rfemur 11.2565 -3.94138 25.3516
rtibia 5.88413
rfoot -13.7243 6.52382
rtoes 10.1331
lfemur -16.0518 8.09209 -12.6524
ltibia 50.058
lfoot -11.2969 3.25759
ltoes 0.582106
1537
root 27.2977 17.0537 -19.0569 491.75 -82.7605 583.04
lowerback 9.9606 2.63036 4.59946
upperback 3.0698 3.86224 1.46712
thorax -2.17175 1.86927 -1.4986
lowerneck -19.8096 1.2985 4.19048
upperneck 27.5817 0.0574038 -0.0563836
head 12.4526 0.325152 -0.754701
rclavicle -7.984e-015 -3.06004e-014
rhumerus -18.5212 6.52239 -82.2584
rradius 41.9004
rwrist -2.30252
rhand -14.0301 -34.6905
rfingers 7.12502
rthumb 12.1 -64.3207
lclavicle -7.984e-015 -3.06004e-014
lhumerus -40.4979 7.39607 76.6379
lradius 16.6836
lwrist -33.3808
lhand -8.02255 -24.2039
lfingers 7.12502
lthumb 17.8871 4.99351
rfemur 11.6735 -3.94355 24.9417
rtibia 5.74275
rfoot -13.826 6.97224
rtoes 10.2802
lfemur -16.6861 8.25491 -13.094
ltibia 47.7053
lfoot -11.5336 4.27635
ltoes 1.89148
1538
root 27.1598 17.042 -19.059 491.695 -82.5247 583.071
lowerback 10.062 2.70872 4.82449
upperback 2.99459 3.99742 1.40577
thorax -2.27737 1.93375 -1.70931
lowerneck -19.8202 1.29085 4.01014
upperneck 27.8853 0.0367295 0.109151
head 12.5761 0.318537 -0.666587
rclavicle -6.18096e-015 -1.66979e-014
rhumerus -17.9558 6.6063 -82.226
rradius 41.8752
rwrist -2.21897
rhand -14.1634 -35.2032
rfingers 7.12502
rthumb 11.9715 -64.8408
lclavicle -6.18096e-015 -1.66979e-014
lhumerus -41.1195 6.81278 76.6151
lradius 17.1002
lwrist -31.4419
lhand -8.65056 -24.4246
lfingers 7.12502
lthumb 17.2828 4.82693
rfemur 12.2575 -3.96396 25.0579
rtibia 5.66178
rfoot -13.747 6.74235
rtoes 8.81868
lfemur -17.028 8.42838 -12.9643
ltibia 45.2196
lfoot -12.083 5.05077
ltoes 3.78302
1539
root 27.024 17.0296 -19.0629 490.296 -82.2176 584.484
lowerback 10.058 2.71799 5.13154
upperback 3.03992 4.03545 1.4618
thorax -2.20721 1.95315 -1.82374
lowerneck -20.0388 1.41283 4.4065
upperneck 28.0188 0.22515 -0.401283
head 12.6803 0.377924 -0.89861
rclavicle 2.04748e-014 -3.97569e-016
rhumerus -17.0875 6.80541 -82.142
rradius 41.6526
rwrist -2.36777
rhand -14.5932 -35.1486
rfingers 7.12502
rthumb 11.5571 -64.8099
lclavicle 2.04748e-014 -3.97569e-016
lhumerus -41.487 6.6541 76.5323
lradius 17.3594
lwrist -29.9664
lhand -9.26113 -24.5475
lfingers 7.12502
lthumb 16.6951 4.75457
rfemur 12.8178 -3.98213 25.4302
rtibia 5.59987
rfoot -14.6337 7.24789
rtoes 9.69882
lfemur -17.4059 8.60741 -12.6088
ltibia 42.7941
lfoot -12.6096 5.60682
ltoes 3.92962
1540
root 26.8818 17.0144 -19.0584 491.496 -82.047 583.441
lowerback 9.89898 2.79218 5.18963
upperback 3.03621 4.12929 1.39579
thorax -2.10805 2.00364 -1.92484
lowerneck -20.2222 1.49106 4.4268
upperneck 27.9106 0.383141 -0.553662
head 12.6782 0.43192 -0.932543
rclavicle 2.31522e-014 3.01159e-014
rhumerus -16.1042 7.0815 -82.1356
rradius 41.1826
rwrist -2.71326
rhand -14.6908 -34.7336
rfingers 7.12502
rthumb 11.463 -64.4002
lclavicle 2.31522e-014 3.01159e-014
lhumerus -41.8657 6.50224 76.4847
lradius 17.7508
lwrist -28.3682
lhand -9.42015 -24.4148
lfingers 7.12502
lthumb 16.542 4.90016
rfemur 13.231 -4.181 25.2644
rtibia 5.64785
rfoot -15.2366 7.45123
rtoes 6.93436
lfemur -17.75 8.74436 -12.7274
ltibia 40.183
lfoot -12.7385 6.27815
ltoes 4.98992
1541
root 26.7391 16.9982 -19.0556 492.927 -81.8627 582.177
lowerback 9.76875 2.90752 5.26548
upperback 2.93846 4.28776 1.27498
thorax -2.11206 2.08391 -2.10356
lowerneck -20.1749 1.44724 4.58445
upperneck 27.8925 0.330491 -0.750854
head 12.6601 0.39825 -1.0438
rclavicle -1.17283e-014 1.07344e-014
rhumerus -15.8071 7.67659 -82.1915
rradius 41.6549
rwrist -3.29748
rhand -14.0396 -34.5253
rfingers 7.12502
rthumb 12.0909 -64.156
lclavicle -1.17283e-014 1.07344e-014
lhumerus -42.3739 6.06038 76.5125
lradius 18.2474
lwrist -26.5221
lhand -9.52393 -24.131
lfingers 7.12502
lthumb 16.4421 5.1922
rfemur 13.5758 -4.30027 25.1061
rtibia 5.77056
rfoot -15.6272 7.76087
rtoes 5.33024
lfemur -17.8924 8.82821 -12.8067
ltibia 37.2501
lfoot -12.9788 6.93763
ltoes 8.21852
1542
root 26.5993 16.9828 -19.0588 492.097 -81.3922 583.129
lowerback 9.64034 2.9928 5.6363
upperback 2.90099 4.43041 1.32973
thorax -2.04486 2.15594 -2.2596
lowerneck -19.7694 1.36162 4.45219
upperneck 27.6473 0.300853 -0.816054
head 12.4756 0.35873 -1.04946
rclavicle 5.36719e-015 -5.36719e-015
rhumerus -15.3512 7.83605 -82.1584
rradius 41.7927
rwrist -3.29177
rhand -14.1585 -34.4805
rfingers 7.12502
rthumb 11.9762 -64.1179
lclavicle 5.36719e-015 -5.36719e-015
lhumerus -42.6827 5.97662 76.3728
lradius 18.3625
lwrist -25.4183
lhand -10.0511 -23.909
lfingers 7.12502
lthumb 15.9344 5.45555
rfemur 14.0499 -3.96613 25.6858
rtibia 5.63398
rfoot -15.9939 7.59889
rtoes 5.5987
lfemur -17.8869 9.10312 -12.2682
ltibia 34.1178
lfoot -12.7991 7.51292
ltoes 10.6014
1543
root 26.4577 16.9678 -19.058 491.288 -80.8373 584.043
lowerback 9.49715 3.03533 5.99709
upperback 2.97358 4.50443 1.4543
thorax -1.86529 2.1969 -2.32515
lowerneck -20.0893 1.61457 4.09649
upperneck 27.7871 0.623153 -0.342406
head 12.6049 0.530889 -0.754839
rclavicle 1.58407e-014 -9.83984e-015
rhumerus -14.6381 7.93526 -82.0442
rradius 41.6904
rwrist -2.91211
rhand -14.8519 -35.2923
rfingers 7.12502
rthumb 11.3076 -64.9675
lclavicle 1.58407e-014 -9.83984e-015
lhumerus -42.8419 6.39636 76.0776
lradius 18.3802
lwrist -24.8648
lhand -10.7389 -23.996
lfingers 7.12502
lthumb 15.272 5.4202
rfemur 14.5209 -3.58939 26.3216
rtibia 5.48158
rfoot -16.4604 7.56774
rtoes 6.44176
lfemur -17.8056 9.49996 -11.6917
ltibia 30.9666
lfoot -12.3297 8.10661
ltoes 11.7648
1544
root 26.3107 16.9522 -19.0525 491.617 -80.5878 583.867
lowerback 9.25893 3.03527 6.02206
upperback 3.09037 4.48027 1.4824
thorax -1.61449 2.19337 -2.28769
lowerneck -20.2553 1.70572 4.13567
upperneck 27.4694 0.800465 -0.485494
head 12.5159 0.597399 -0.783512
rclavicle 3.71852e-014 -1.15295e-014
rhumerus -13.8806 8.31319 -81.9869
rradius 41.7469
rwrist -2.74046
rhand -14.9597 -35.817
rfingers 7.12502
rthumb 11.2036 -65.4978
lclavicle 3.71852e-014 -1.15295e-014
lhumerus -42.9091 6.90902 75.8206
lradius 18.4731
lwrist -24.2389
lhand -11.3236 -24.4162
lfingers 7.12502
lthumb 14.7087 5.042
rfemur 14.8708 -3.39848 26.4688
rtibia 5.49809
rfoot -17.4063 7.64155
rtoes 6.04127
lfemur -17.7516 9.82971 -11.6814
ltibia 27.7725
lfoot -11.7446 8.69487
ltoes 12.0618
